<svg xmlns="http://www.w3.org/2000/svg" xmlns:xlink="http://www.w3.org/1999/xlink" width="670" height="558" viewBox="0 0 670 558">
    <defs>
        <circle id="b" cx="60" cy="60" r="60"/>
        <filter id="a" width="155%" height="155%" x="-32.5%" y="-22.5%" filterUnits="objectBoundingBox">
            <feOffset dx="-6" dy="6" in="SourceAlpha" result="shadowOffsetOuter1"/>
            <feGaussianBlur in="shadowOffsetOuter1" result="shadowBlurOuter1" stdDeviation="10"/>
            <feColorMatrix in="shadowBlurOuter1" values="0 0 0 0 0.968627451 0 0 0 0 0.364705882 0 0 0 0 0.466666667 0 0 0 0.36 0"/>
        </filter>
        <circle id="d" cx="645.5" cy="160.5" r="8.5"/>
        <filter id="c" width="488.2%" height="488.2%" x="-229.4%" y="-158.8%" filterUnits="objectBoundingBox">
            <feOffset dx="-6" dy="6" in="SourceAlpha" result="shadowOffsetOuter1"/>
            <feGaussianBlur in="shadowOffsetOuter1" result="shadowBlurOuter1" stdDeviation="10"/>
            <feColorMatrix in="shadowBlurOuter1" values="0 0 0 0 0.968627451 0 0 0 0 0.364705882 0 0 0 0 0.466666667 0 0 0 0.36 0"/>
        </filter>
        <circle id="f" cx="638.5" cy="383.5" r="18.5"/>
        <filter id="e" width="278.4%" height="278.4%" x="-105.4%" y="-73%" filterUnits="objectBoundingBox">
            <feOffset dx="-6" dy="6" in="SourceAlpha" result="shadowOffsetOuter1"/>
            <feGaussianBlur in="shadowOffsetOuter1" result="shadowBlurOuter1" stdDeviation="10"/>
            <feColorMatrix in="shadowBlurOuter1" values="0 0 0 0 0.968627451 0 0 0 0 0.364705882 0 0 0 0 0.466666667 0 0 0 0.36 0"/>
        </filter>
        <circle id="h" cx="207" cy="423" r="14"/>
        <filter id="g" width="335.7%" height="335.7%" x="-139.3%" y="-96.4%" filterUnits="objectBoundingBox">
            <feOffset dx="-6" dy="6" in="SourceAlpha" result="shadowOffsetOuter1"/>
            <feGaussianBlur in="shadowOffsetOuter1" result="shadowBlurOuter1" stdDeviation="10"/>
            <feColorMatrix in="shadowBlurOuter1" values="0 0 0 0 0.968627451 0 0 0 0 0.364705882 0 0 0 0 0.466666667 0 0 0 0.36 0"/>
        </filter>
    </defs>
    <g fill="none" fill-rule="evenodd">
        <path d="M-29-56h720v670H-29z"/>
        <g fill-rule="nonzero">
            <path fill="#E6E9EC" d="M508.455 371.705l-82.793-41.392C417.853 326.404 413 318.552 413 309.816v-29.302c1.985-2.427 4.073-5.191 6.231-8.242 10.738-15.167 19.344-32.05 25.602-50.258C457.06 216.407 465 204.317 465 190.667V156c0-8.346-3.12-16.432-8.667-22.75V87.152c.486-4.767 2.392-33.141-18.13-56.55C420.4 10.296 391.515 0 352.333 0s-68.068 10.296-85.869 30.593c-20.523 23.409-18.616 51.792-18.13 56.559v46.098c-5.547 6.318-8.667 14.404-8.667 22.75v34.667c0 10.547 4.792 20.384 12.974 26.944 7.938 31.434 24.552 55.12 30.359 62.721v28.678c0 8.39-4.576 16.085-11.934 20.107l-77.315 42.172A78.152 78.152 0 0 0 153 439.937V468c0 41.132 130.39 52 199.333 52 68.944 0 199.334-10.868 199.334-52v-26.373c0-29.796-16.562-56.593-43.212-69.922z"/>
            <g transform="translate(48 195)">
                <use fill="#000" filter="url(#a)" xlink:href="#b"/>
                <use fill="#F75D77" xlink:href="#b"/>
            </g>
            <g fill="#FFF">
                <path d="M139.97 254.966a32.875 32.875 0 0 0-9.412-19.915 32.463 32.463 0 0 0-15.983-8.8v-4.123a5.523 5.523 0 0 0 4.174-5.353c0-3.042-2.468-5.517-5.501-5.517h-11.65c-3.033 0-5.5 2.475-5.5 5.517a5.523 5.523 0 0 0 4.172 5.353v4.134a32.462 32.462 0 0 0-15.933 8.789 32.903 32.903 0 0 0-2.747 3.126c-.04-.003-.081-.006-.123-.006h-11.53a1.62 1.62 0 0 0-1.617 1.623 1.62 1.62 0 0 0 1.617 1.622h9.451a32.57 32.57 0 0 0-2.87 6.236h-17.61a1.62 1.62 0 0 0-1.618 1.623 1.62 1.62 0 0 0 1.618 1.622h16.695a33.077 33.077 0 0 0-.803 6.237h-7.155a1.62 1.62 0 0 0-1.618 1.622 1.62 1.62 0 0 0 1.618 1.623h7.207c.136 2.1.473 4.19 1.01 6.236H65.38a1.62 1.62 0 0 0-1.618 1.623 1.62 1.62 0 0 0 1.618 1.623h11.515a32.705 32.705 0 0 0 27.322 20.981c1.069.106 2.138.158 3.206.158 6.314 0 12.547-1.832 17.837-5.286.748-.49.96-1.495.472-2.245a1.615 1.615 0 0 0-2.238-.475c-11.578 7.56-27.083 5.926-36.869-3.887-11.481-11.513-11.481-30.248 0-41.761 11.481-11.514 30.163-11.514 41.645 0 9.772 9.8 11.411 25.335 3.897 36.94-.306.472-5.343 6.301-8.673 8.708-1.83 1.323-.941 2.195-.662 2.376.347.226.093 2.228 2.428.344 1.158-.935 3.503-2.491 5.298-4.312 2.396-2.431 4.173-5.118 4.322-5.349 4.015-6.2 5.823-13.689 5.09-21.087zm-40.637-38.191a2.27 2.27 0 0 1 2.265-2.272h11.65a2.27 2.27 0 0 1 2.265 2.272 2.27 2.27 0 0 1-2.265 2.271H101.598a2.27 2.27 0 0 1-2.265-2.271zm4.173 8.929v-3.413h7.833v3.407a32.875 32.875 0 0 0-7.833.006z"/>
                <path d="M106.994 232.902c-13.861 0-25.138 11.37-25.138 25.347 0 13.976 11.277 25.346 25.138 25.346 13.86 0 25.137-11.37 25.137-25.346s-11.277-25.347-25.137-25.347zm0 47.426c-12.074 0-21.897-9.905-21.897-22.08 0-12.173 9.823-22.078 21.897-22.078 12.073 0 21.896 9.905 21.896 22.079 0 12.174-9.823 22.079-21.896 22.079z"/>
                <path d="M117.924 245.897l-8.067 7.85a5.144 5.144 0 0 0-2.235-.507c-.803 0-1.561.183-2.236.508l-3.61-3.514a1.66 1.66 0 0 0-2.304 0 1.555 1.555 0 0 0 0 2.242l3.61 3.513a4.786 4.786 0 0 0-.521 2.176c0 2.716 2.27 4.925 5.06 4.925 2.792 0 5.062-2.21 5.062-4.925 0-.78-.189-1.52-.522-2.176l7.83-7.62.237-.23a1.555 1.555 0 0 0 0-2.242 1.66 1.66 0 0 0-2.304 0zm-10.302 14.023c-.995 0-1.804-.787-1.804-1.755 0-.968.81-1.755 1.804-1.755s1.803.787 1.803 1.755c0 .968-.809 1.755-1.803 1.755zM124.66 256.825h-1.627c-.97 0-1.757.637-1.757 1.424 0 .786.787 1.424 1.757 1.424h1.628c.97 0 1.757-.638 1.757-1.424 0-.787-.787-1.424-1.757-1.424zM92.097 256.825h-1.628c-.97 0-1.757.637-1.757 1.424 0 .786.787 1.424 1.757 1.424h1.628c.97 0 1.757-.638 1.757-1.424 0-.787-.787-1.424-1.757-1.424zM107.28 244.294c.788 0 1.427-.784 1.427-1.752v-1.623c0-.967-.64-1.751-1.428-1.751-.788 0-1.428.784-1.428 1.751v1.623c0 .968.64 1.752 1.428 1.752zM107.28 272.204c-.79 0-1.43.784-1.43 1.751v1.623c0 .968.64 1.752 1.43 1.752.788 0 1.427-.784 1.427-1.752v-1.623c0-.967-.64-1.751-1.428-1.751zM58.719 266.508c-.376 0-.745.152-1.01.417a1.433 1.433 0 0 0-.419 1.007 1.43 1.43 0 0 0 1.429 1.424 1.44 1.44 0 0 0 1.01-.417c.265-.265.418-.633.418-1.007 0-.375-.153-.742-.419-1.007a1.44 1.44 0 0 0-1.01-.417z"/>
            </g>
            <g transform="translate(408 415)">
                <circle cx="71.5" cy="71.5" r="71.5" fill="#8495A0"/>
                <path fill="#FFF" d="M107.745 103.726C115.666 94.838 120 83.503 120 71.5c0-9.337-2.627-18.31-7.617-26.102l6.784-6.784a2.843 2.843 0 0 0-1.11-4.706l-6.723-2.241-2.24-6.724a2.845 2.845 0 0 0-4.706-1.11l-6.786 6.785C89.81 25.628 80.836 23 71.5 23c-12.955 0-25.134 5.045-34.295 14.205C28.045 46.365 23 58.545 23 71.5c0 12.003 4.334 23.338 12.256 32.226l4.018 4.018C48.162 115.667 59.497 120 71.5 120s23.338-4.334 32.226-12.256l4.019-4.018zM105.264 31l1.235 3.705a2.839 2.839 0 0 0 1.795 1.796L112 37.737 105.737 44l-5.053-1.684L99 37.263 105.264 31zM84 71.5C84 78.392 78.392 84 71.5 84 64.607 84 59 78.392 59 71.5S64.607 59 71.5 59c2.408 0 4.659.686 6.569 1.871l-8.598 8.6a2.869 2.869 0 1 0 4.058 4.058l8.599-8.599A12.42 12.42 0 0 1 84 71.5zm-1.94-14.565a17.902 17.902 0 0 0-10.56-3.432c-9.924 0-17.998 8.073-17.998 17.997S61.576 89.497 71.5 89.497c9.924 0 17.998-8.073 17.998-17.997 0-3.942-1.275-7.591-3.434-10.56l6.77-6.77A27.37 27.37 0 0 1 99 71.5C99 86.663 86.663 99 71.5 99 56.336 99 44 86.663 44 71.5S56.336 44 71.5 44a27.374 27.374 0 0 1 17.33 6.165l-6.77 6.77zM29 72c0-23.71 19.29-43 43-43 7.857 0 15.423 2.097 22.077 6.09a2.854 2.854 0 0 0-.547 2.767l2.145 6.432-2.157 2.157C87.699 41.54 80.19 38.576 72 38.576 53.57 38.576 38.577 53.57 38.577 72S53.57 105.424 72 105.424 105.424 90.43 105.424 72c0-8.19-2.963-15.7-7.87-21.518l2.157-2.157 6.433 2.145a2.853 2.853 0 0 0 2.765-.548c3.994 6.654 6.091 14.22 6.091 22.078 0 23.71-19.29 43-43 43S29 95.71 29 72z"/>
            </g>
            <g transform="translate(0 94)">
                <circle cx="115.5" cy="329.5" r="8.5" fill="#8495A0"/>
                <circle cx="81" cy="385" r="4" fill="#8495A0"/>
                <circle cx="4" cy="85" r="4" fill="#8495A0"/>
                <circle cx="93" cy="14" r="14" fill="#8495A0"/>
                <use fill="#000" filter="url(#c)" xlink:href="#d"/>
                <use fill="#F75D77" xlink:href="#d"/>
                <circle cx="603" cy="247" r="6" fill="#8495A0"/>
                <use fill="#000" filter="url(#e)" xlink:href="#f"/>
                <use fill="#F75D77" xlink:href="#f"/>
                <g>
                    <use fill="#000" filter="url(#g)" xlink:href="#h"/>
                    <use fill="#F75D77" xlink:href="#h"/>
                </g>
            </g>
            <g transform="translate(549 119)">
                <circle cx="38" cy="38" r="38" fill="#8495A0"/>
                <g fill="#FFF">
                    <path d="M56.942 19.07A20.525 20.525 0 0 0 42.318 13a20.526 20.526 0 0 0-14.624 6.07 20.608 20.608 0 0 0-6.058 14.653c0 4.228 1.257 8.262 3.59 11.676L15.117 55.476A3.803 3.803 0 0 0 14 58.179c0 1.021.397 1.98 1.117 2.703a3.802 3.802 0 0 0 2.7 1.118c.975 0 1.951-.372 2.693-1.116l10.103-10.07a20.505 20.505 0 0 0 11.705 3.632 20.524 20.524 0 0 0 14.624-6.07A20.607 20.607 0 0 0 63 33.723c0-5.535-2.151-10.74-6.058-14.653zM18.483 58.848a.945.945 0 0 1-1.338-1.336l9.875-9.844a21.037 21.037 0 0 0 1.334 1.34l-9.87 9.84zm36.43-12.506c-6.945 6.958-18.244 6.958-25.19 0-6.944-6.958-6.944-18.28 0-25.238a17.677 17.677 0 0 1 12.595-5.228c4.758 0 9.23 1.857 12.594 5.228 6.945 6.958 6.945 18.28 0 25.238z"/>
                    <path d="M53.38 22.62c-6.127-6.126-16.095-6.126-22.221 0-6.126 6.127-6.126 16.095 0 22.221a15.665 15.665 0 0 0 11.11 4.595c4.024 0 8.047-1.532 11.11-4.595 6.127-6.126 6.127-16.094 0-22.22zm-2.024 20.197c-5.01 5.01-13.163 5.01-18.173 0-5.01-5.01-5.01-13.162 0-18.173a12.809 12.809 0 0 1 9.086-3.758c3.29 0 6.582 1.253 9.087 3.758 5.01 5.01 5.01 13.163 0 18.173z"/>
                </g>
            </g>
        </g>
    </g>
</svg>
