<svg xmlns="http://www.w3.org/2000/svg" xmlns:xlink="http://www.w3.org/1999/xlink" width="670" height="558" viewBox="0 0 670 558">
    <defs>
        <circle id="b" cx="77.5" cy="77.5" r="77.5"/>
        <filter id="a" width="142.6%" height="142.6%" x="-25.2%" y="-17.4%" filterUnits="objectBoundingBox">
            <feOffset dx="-6" dy="6" in="SourceAlpha" result="shadowOffsetOuter1"/>
            <feGaussianBlur in="shadowOffsetOuter1" result="shadowBlurOuter1" stdDeviation="10"/>
            <feColorMatrix in="shadowBlurOuter1" values="0 0 0 0 0.968627451 0 0 0 0 0.364705882 0 0 0 0 0.466666667 0 0 0 0.36 0"/>
        </filter>
        <circle id="d" cx="645.5" cy="160.5" r="8.5"/>
        <filter id="c" width="488.2%" height="488.2%" x="-229.4%" y="-158.8%" filterUnits="objectBoundingBox">
            <feOffset dx="-6" dy="6" in="SourceAlpha" result="shadowOffsetOuter1"/>
            <feGaussianBlur in="shadowOffsetOuter1" result="shadowBlurOuter1" stdDeviation="10"/>
            <feColorMatrix in="shadowBlurOuter1" values="0 0 0 0 0.968627451 0 0 0 0 0.364705882 0 0 0 0 0.466666667 0 0 0 0.36 0"/>
        </filter>
        <circle id="f" cx="638.5" cy="383.5" r="18.5"/>
        <filter id="e" width="278.4%" height="278.4%" x="-105.4%" y="-73%" filterUnits="objectBoundingBox">
            <feOffset dx="-6" dy="6" in="SourceAlpha" result="shadowOffsetOuter1"/>
            <feGaussianBlur in="shadowOffsetOuter1" result="shadowBlurOuter1" stdDeviation="10"/>
            <feColorMatrix in="shadowBlurOuter1" values="0 0 0 0 0.968627451 0 0 0 0 0.364705882 0 0 0 0 0.466666667 0 0 0 0.36 0"/>
        </filter>
        <circle id="h" cx="207" cy="423" r="14"/>
        <filter id="g" width="335.7%" height="335.7%" x="-139.3%" y="-96.4%" filterUnits="objectBoundingBox">
            <feOffset dx="-6" dy="6" in="SourceAlpha" result="shadowOffsetOuter1"/>
            <feGaussianBlur in="shadowOffsetOuter1" result="shadowBlurOuter1" stdDeviation="10"/>
            <feColorMatrix in="shadowBlurOuter1" values="0 0 0 0 0.968627451 0 0 0 0 0.364705882 0 0 0 0 0.466666667 0 0 0 0.36 0"/>
        </filter>
    </defs>
    <g fill="none" fill-rule="evenodd">
        <path d="M-32-56h720v670H-32z"/>
        <g fill-rule="nonzero">
            <path fill="#8495A0" d="M589.448 150.857c1.24 65.309 2.781 146.589-24.491 220.445-14.953 40.502-37.58 75.71-67.247 104.653-33.775 32.947-78.005 59.12-131.458 77.793a40.765 40.765 0 0 1-5.415 1.476 40.017 40.017 0 0 1-7.83.776 40.05 40.05 0 0 1-7.832-.776 40.731 40.731 0 0 1-5.393-1.468c-53.518-18.639-97.794-44.8-131.598-77.75-29.68-28.935-52.307-64.134-67.247-104.628-27.171-73.636-25.625-154.763-24.38-219.948l.025-1.006c.242-5.378.407-11.029.5-17.273.455-30.66 24.857-56.019 55.548-57.728C236.628 71.85 286.137 51.006 328.44 9.82l.36-.343c13.803-12.637 34.616-12.637 48.414 0l.36.343c42.302 41.185 91.81 62.03 155.81 65.597 30.695 1.714 55.092 27.072 55.547 57.729.097 6.286.259 11.937.5 17.277l.018.433z" opacity=".203"/>
            <path fill="#8495A0" d="M353.502 363C307.458 363 270 325.094 270 278.5s37.458-84.5 83.502-84.5c46.04 0 83.498 37.906 83.498 84.5S399.542 363 353.502 363z" opacity=".115"/>
            <path stroke="#FFF" stroke-width="16" d="M353.502 363C307.458 363 270 325.094 270 278.5s37.458-84.5 83.502-84.5c46.04 0 83.498 37.906 83.498 84.5S399.542 363 353.502 363z"/>
            <path fill="#FFF" d="M380.61 255.6l-35.567 34.99-9.653-9.498c-3.522-3.464-9.23-3.464-12.75 0a8.77 8.77 0 0 0 0 12.541l16.03 15.77a9.061 9.061 0 0 0 6.373 2.597 9.061 9.061 0 0 0 6.374-2.597l41.944-41.262a8.77 8.77 0 0 0 0-12.541c-3.521-3.467-9.23-3.467-12.75 0z"/>
            <g transform="translate(38 175)">
                <use fill="#000" filter="url(#a)" xlink:href="#b"/>
                <use fill="#F75D77" xlink:href="#b"/>
            </g>
            <g fill="#FFF">
                <path d="M156.794 252.456a42.464 42.464 0 0 0-12.157-25.724 41.932 41.932 0 0 0-20.644-11.367v-5.325a7.133 7.133 0 0 0 5.39-6.914c0-3.93-3.187-7.126-7.105-7.126h-15.047c-3.918 0-7.106 3.196-7.106 7.126a7.134 7.134 0 0 0 5.39 6.914v5.34a41.93 41.93 0 0 0-20.58 11.352 42.5 42.5 0 0 0-3.548 4.039 2.082 2.082 0 0 0-.158-.008H66.336c-1.154 0-2.09.938-2.09 2.095 0 1.158.936 2.096 2.09 2.096h12.207a42.069 42.069 0 0 0-3.708 8.055H52.09c-1.154 0-2.09.939-2.09 2.096 0 1.158.936 2.096 2.09 2.096h21.564a42.725 42.725 0 0 0-1.037 8.055h-9.242c-1.154 0-2.09.939-2.09 2.096 0 1.158.936 2.096 2.09 2.096h9.309a42.659 42.659 0 0 0 1.304 8.055H60.45c-1.154 0-2.09.939-2.09 2.096 0 1.158.936 2.096 2.09 2.096h14.873a42.102 42.102 0 0 0 9.613 14.907c6.886 6.905 16.005 11.235 25.678 12.194 1.38.136 2.762.204 4.142.204 8.155 0 16.207-2.367 23.039-6.828a2.1 2.1 0 0 0 .61-2.9 2.086 2.086 0 0 0-2.891-.613c-14.955 9.766-34.983 7.654-47.622-5.02-14.83-14.872-14.83-39.07 0-53.943 14.83-14.871 38.96-14.871 53.79 0 12.623 12.659 14.74 32.726 5.034 47.715-.395.61-6.9 8.139-11.202 11.248-2.363 1.708-1.215 2.835-.855 3.069.448.292.12 2.878 3.136.444 1.496-1.208 4.525-3.218 6.843-5.57 3.095-3.14 5.39-6.61 5.584-6.908 5.185-8.01 7.52-17.682 6.573-27.238zm-52.489-49.33a2.933 2.933 0 0 1 2.926-2.934h15.047a2.933 2.933 0 0 1 2.926 2.934 2.933 2.933 0 0 1-2.926 2.934h-15.047a2.933 2.933 0 0 1-2.926-2.934zm5.39 11.533v-4.408h10.118v4.4c-3.36-.4-6.758-.397-10.117.008z"/>
                <path d="M114.2 223.957c-17.903 0-32.469 14.687-32.469 32.74 0 18.052 14.566 32.739 32.469 32.739s32.469-14.687 32.469-32.74c0-18.052-14.566-32.739-32.469-32.739zm0 61.258c-15.595 0-28.283-12.794-28.283-28.519 0-15.725 12.688-28.518 28.283-28.518s28.283 12.793 28.283 28.518c0 15.725-12.688 28.519-28.283 28.519z"/>
                <path d="M128.32 240.742l-10.42 10.14a6.645 6.645 0 0 0-2.889-.656 6.644 6.644 0 0 0-2.887.657l-4.664-4.539c-.821-.8-2.153-.8-2.975 0a2.009 2.009 0 0 0 0 2.896l4.664 4.538a6.182 6.182 0 0 0-.675 2.81c0 3.508 2.933 6.362 6.537 6.362 3.605 0 6.538-2.854 6.538-6.362a6.184 6.184 0 0 0-.675-2.81l10.115-9.843.305-.297c.822-.8.822-2.096 0-2.896-.821-.799-2.153-.799-2.975 0zm-13.309 18.114c-1.284 0-2.33-1.018-2.33-2.268 0-1.25 1.046-2.267 2.33-2.267 1.285 0 2.33 1.017 2.33 2.267s-1.045 2.268-2.33 2.268zM137.02 254.857h-2.102c-1.253 0-2.27.824-2.27 1.84 0 1.015 1.017 1.839 2.27 1.839h2.102c1.253 0 2.27-.824 2.27-1.84 0-1.015-1.017-1.839-2.27-1.839zM94.958 254.857h-2.102c-1.254 0-2.27.824-2.27 1.84 0 1.015 1.016 1.839 2.27 1.839h2.102c1.253 0 2.27-.824 2.27-1.84 0-1.015-1.017-1.839-2.27-1.839zM114.569 238.671c1.019 0 1.845-1.013 1.845-2.262v-2.096c0-1.25-.826-2.263-1.845-2.263-1.019 0-1.845 1.013-1.845 2.263v2.096c0 1.25.826 2.262 1.845 2.262zM114.569 274.721c-1.019 0-1.845 1.013-1.845 2.263v2.096c0 1.25.826 2.263 1.845 2.263 1.019 0 1.845-1.013 1.845-2.263v-2.096c0-1.25-.826-2.263-1.845-2.263zM51.845 267.364c-.485 0-.961.197-1.304.54a1.85 1.85 0 0 0-.541 1.3 1.846 1.846 0 0 0 1.845 1.839 1.86 1.86 0 0 0 1.304-.54 1.85 1.85 0 0 0 .54-1.3 1.85 1.85 0 0 0-.54-1.3 1.86 1.86 0 0 0-1.304-.539z"/>
            </g>
            <g transform="translate(408 415)">
                <circle cx="71.5" cy="71.5" r="71.5" fill="#8495A0"/>
                <path fill="#FFF" d="M107.745 103.726C115.666 94.838 120 83.503 120 71.5c0-9.337-2.627-18.31-7.617-26.102l6.784-6.784a2.843 2.843 0 0 0-1.11-4.706l-6.723-2.241-2.24-6.724a2.845 2.845 0 0 0-4.706-1.11l-6.786 6.785C89.81 25.628 80.836 23 71.5 23c-12.955 0-25.134 5.045-34.295 14.205C28.045 46.365 23 58.545 23 71.5c0 12.003 4.334 23.338 12.256 32.226l4.018 4.018C48.162 115.667 59.497 120 71.5 120s23.338-4.334 32.226-12.256l4.019-4.018zM105.264 31l1.235 3.705a2.839 2.839 0 0 0 1.795 1.796L112 37.737 105.737 44l-5.053-1.684L99 37.263 105.264 31zM84 71.5C84 78.392 78.392 84 71.5 84 64.607 84 59 78.392 59 71.5S64.607 59 71.5 59c2.408 0 4.659.686 6.569 1.871l-8.598 8.6a2.869 2.869 0 1 0 4.058 4.058l8.599-8.599A12.42 12.42 0 0 1 84 71.5zm-1.94-14.565a17.902 17.902 0 0 0-10.56-3.432c-9.924 0-17.998 8.073-17.998 17.997S61.576 89.497 71.5 89.497c9.924 0 17.998-8.073 17.998-17.997 0-3.942-1.275-7.591-3.434-10.56l6.77-6.77A27.37 27.37 0 0 1 99 71.5C99 86.663 86.663 99 71.5 99 56.336 99 44 86.663 44 71.5S56.336 44 71.5 44a27.374 27.374 0 0 1 17.33 6.165l-6.77 6.77zM29 72c0-23.71 19.29-43 43-43 7.857 0 15.423 2.097 22.077 6.09a2.854 2.854 0 0 0-.547 2.767l2.145 6.432-2.157 2.157C87.699 41.54 80.19 38.576 72 38.576 53.57 38.576 38.577 53.57 38.577 72S53.57 105.424 72 105.424 105.424 90.43 105.424 72c0-8.19-2.963-15.7-7.87-21.518l2.157-2.157 6.433 2.145a2.853 2.853 0 0 0 2.765-.548c3.994 6.654 6.091 14.22 6.091 22.078 0 23.71-19.29 43-43 43S29 95.71 29 72z"/>
            </g>
            <g transform="translate(0 94)">
                <circle cx="115.5" cy="329.5" r="8.5" fill="#8495A0"/>
                <circle cx="81" cy="385" r="4" fill="#8495A0"/>
                <circle cx="4" cy="85" r="4" fill="#8495A0"/>
                <circle cx="93" cy="14" r="14" fill="#8495A0"/>
                <use fill="#000" filter="url(#c)" xlink:href="#d"/>
                <use fill="#F75D77" xlink:href="#d"/>
                <circle cx="603" cy="247" r="6" fill="#8495A0"/>
                <use fill="#000" filter="url(#e)" xlink:href="#f"/>
                <use fill="#F75D77" xlink:href="#f"/>
                <g>
                    <use fill="#000" filter="url(#g)" xlink:href="#h"/>
                    <use fill="#F75D77" xlink:href="#h"/>
                </g>
            </g>
            <g transform="translate(549 119)">
                <circle cx="38" cy="38" r="38" fill="#8495A0"/>
                <g fill="#FFF">
                    <path d="M56.942 19.07A20.525 20.525 0 0 0 42.318 13a20.526 20.526 0 0 0-14.624 6.07 20.608 20.608 0 0 0-6.058 14.653c0 4.228 1.257 8.262 3.59 11.676L15.117 55.476A3.803 3.803 0 0 0 14 58.179c0 1.021.397 1.98 1.117 2.703a3.802 3.802 0 0 0 2.7 1.118c.975 0 1.951-.372 2.693-1.116l10.103-10.07a20.505 20.505 0 0 0 11.705 3.632 20.524 20.524 0 0 0 14.624-6.07A20.607 20.607 0 0 0 63 33.723c0-5.535-2.151-10.74-6.058-14.653zM18.483 58.848a.945.945 0 0 1-1.338-1.336l9.875-9.844a21.037 21.037 0 0 0 1.334 1.34l-9.87 9.84zm36.43-12.506c-6.945 6.958-18.244 6.958-25.19 0-6.944-6.958-6.944-18.28 0-25.238a17.677 17.677 0 0 1 12.595-5.228c4.758 0 9.23 1.857 12.594 5.228 6.945 6.958 6.945 18.28 0 25.238z"/>
                    <path d="M53.38 22.62c-6.127-6.126-16.095-6.126-22.221 0-6.126 6.127-6.126 16.095 0 22.221a15.665 15.665 0 0 0 11.11 4.595c4.024 0 8.047-1.532 11.11-4.595 6.127-6.126 6.127-16.094 0-22.22zm-2.024 20.197c-5.01 5.01-13.163 5.01-18.173 0-5.01-5.01-5.01-13.162 0-18.173a12.809 12.809 0 0 1 9.086-3.758c3.29 0 6.582 1.253 9.087 3.758 5.01 5.01 5.01 13.163 0 18.173z"/>
                </g>
            </g>
        </g>
    </g>
</svg>
